<svg width="500" height="500" viewBox="0 0 500 500" fill="none" xmlns="http://www.w3.org/2000/svg">
<path fill-rule="evenodd" clip-rule="evenodd" d="M250 470.93C372.016 470.93 470.93 372.016 470.93 250C470.93 127.984 372.016 29.0698 250 29.0698C127.984 29.0698 29.0698 127.984 29.0698 250C29.0698 372.016 127.984 470.93 250 470.93ZM250 500C388.071 500 500 388.071 500 250C500 111.929 388.071 0 250 0C111.929 0 0 111.929 0 250C0 388.071 111.929 500 250 500Z" fill="white"/>
<path fill-rule="evenodd" clip-rule="evenodd" d="M187.5 408.429C274.999 408.429 345.93 337.497 345.93 249.999C345.93 162.5 274.999 91.5685 187.5 91.5685C100.001 91.5685 29.0698 162.5 29.0698 249.999C29.0698 337.497 100.001 408.429 187.5 408.429ZM187.5 437.499C291.053 437.499 375 353.552 375 249.999C375 146.445 291.053 62.4988 187.5 62.4988C83.9466 62.4988 0 146.445 0 249.999C0 353.552 83.9466 437.499 187.5 437.499Z" fill="white"/>
<path fill-rule="evenodd" clip-rule="evenodd" d="M125 345.929C177.981 345.929 220.93 302.98 220.93 249.999C220.93 197.018 177.981 154.069 125 154.069C72.0192 154.069 29.0698 197.018 29.0698 249.999C29.0698 302.98 72.0192 345.929 125 345.929ZM125 374.999C194.036 374.999 250 319.034 250 249.999C250 180.963 194.036 124.999 125 124.999C55.9644 124.999 0 180.963 0 249.999C0 319.034 55.9644 374.999 125 374.999Z" fill="white"/>
</svg>
